<svg xmlns="http://www.w3.org/2000/svg" viewBox="0 0 490.8 490.8"><g fill="#009688"><path d="M231.696 3.128c-4.237-4.093-10.99-3.975-15.083.262-3.992 4.134-3.992 10.687 0 14.82l227.115 227.136-227.136 227.115c-4.237 4.093-4.355 10.845-.262 15.083 4.093 4.237 10.845 4.354 15.083.262.089-.086.176-.173.262-.262l234.667-234.667c4.164-4.165 4.164-10.917 0-15.083L231.696 3.128z"/><path d="M274.363 237.795L39.696 3.128a10.668 10.668 0 00-15.083 15.083l227.115 227.136L24.592 472.461c-4.237 4.093-4.354 10.845-.262 15.083 4.093 4.237 10.845 4.354 15.083.262.089-.086.176-.173.262-.262l234.667-234.667c4.169-4.159 4.179-10.911.021-15.082z"/></g><path d="M224.144 490.68a10.667 10.667 0 01-7.552-18.219l227.136-227.115L216.592 18.232c-4.093-4.237-3.975-10.99.262-15.083 4.134-3.992 10.687-3.992 14.82 0l234.667 234.667c4.164 4.165 4.164 10.917 0 15.083L231.675 487.565a10.66 10.66 0 01-7.531 3.115z"/><path d="M32.144 490.68a10.667 10.667 0 01-7.552-18.219l227.136-227.115L24.592 18.232c-4.171-4.171-4.171-10.933 0-15.104s10.933-4.171 15.104 0l234.667 234.667c4.164 4.165 4.164 10.917 0 15.083L39.696 487.544a10.665 10.665 0 01-7.552 3.136z"/></svg>