<?xml version="1.0" encoding="iso-8859-1"?>
<!-- Generator: Adobe Illustrator 19.0.0, SVG Export Plug-In . SVG Version: 6.00 Build 0)  -->
<svg version="1.1" id="Capa_1" xmlns="http://www.w3.org/2000/svg" xmlns:xlink="http://www.w3.org/1999/xlink" x="0px" y="0px"
	 viewBox="0 0 511.999 511.999" style="enable-background:new 0 0 511.999 511.999;" xml:space="preserve">
<g>
	<g>
		<path d="M510.062,328.728c-0.351-0.387-0.746-0.742-1.18-1.053c-0.001-0.001-0.004-0.003-0.008-0.006
			c-0.392-0.281-0.813-0.525-1.254-0.726l-67.207-32.069l67.082-32.009c2.114-0.917,3.747-2.791,4.304-5.145
			c0.356-1.51,0.227-3.041-0.303-4.41c-0.338-0.877-0.833-1.667-1.447-2.341c-0.345-0.379-0.73-0.724-1.153-1.029
			c0-0.001,0-0.001,0-0.001c-0.003-0.002-0.005-0.003-0.007-0.005c-0.398-0.286-0.823-0.534-1.272-0.739l-67.204-32.067
			l67.083-32.01c2.114-0.917,3.747-2.79,4.303-5.144c0.355-1.506,0.227-3.032-0.299-4.4c-0.336-0.875-0.827-1.664-1.439-2.338
			c-0.351-0.387-0.746-0.742-1.18-1.053c-0.001-0.002-0.004-0.003-0.008-0.006c-0.392-0.281-0.812-0.525-1.254-0.726
			l-140.573-67.077c-3.723-1.779-8.188-0.2-9.966,3.528c-1.778,3.726-0.198,8.188,3.528,9.966l126.552,60.388l-231.364,110.4
			l-230.984-110.4l230.984-110.4l56.037,26.739c3.723,1.78,8.188,0.2,9.966-3.528c1.778-3.726,0.199-8.188-3.528-9.966
			l-59.258-28.277c-2.038-0.974-4.406-0.973-6.443,0.002L4.499,171.393c-2.112,0.918-3.743,2.79-4.298,5.142
			c-0.356,1.506-0.228,3.032,0.299,4.4c0.335,0.875,0.827,1.664,1.438,2.338c0.351,0.387,0.746,0.742,1.18,1.053
			c0.003,0.003,0.006,0.004,0.008,0.006c0.391,0.28,0.81,0.523,1.25,0.724l67.1,32.071L4.5,249.139
			c-2.112,0.917-3.744,2.79-4.299,5.142c-0.355,1.505-0.228,3.03,0.297,4.397c0.34,0.888,0.84,1.686,1.463,2.366
			c0.341,0.374,0.723,0.714,1.141,1.016c0.003,0.002,0.004,0.003,0.008,0.006c0.397,0.286,0.823,0.534,1.272,0.739l67.095,32.068
			L4.5,326.885c-2.113,0.917-3.744,2.789-4.299,5.142c-0.356,1.509-0.227,3.038,0.302,4.407c0.331,0.86,0.813,1.638,1.411,2.304
			c0.002,0.002,0.004,0.005,0.005,0.005c0.369,0.411,0.786,0.784,1.246,1.109c0.004,0.002,0.006,0.004,0.009,0.006
			c0.377,0.266,0.779,0.497,1.202,0.69l248.196,118.627c1.02,0.488,2.121,0.731,3.224,0.731c1.1,0,2.201-0.243,3.219-0.729
			L507.496,340.61c2.114-0.917,3.747-2.79,4.303-5.144c0.355-1.506,0.227-3.033-0.299-4.4
			C511.165,330.191,510.673,329.401,510.062,328.728z M255.798,444.146l-230.984-110.4l63.997-30.587l44.026,21.043
			c1.041,0.497,2.138,0.733,3.219,0.733c2.79,0,5.467-1.569,6.75-4.254c1.781-3.725,0.204-8.188-3.521-9.968L93.313,288.74
			c-0.713-0.512-1.51-0.887-2.349-1.123L24.814,256l63.996-30.587l163.761,78.27c1.02,0.488,2.121,0.731,3.224,0.731
			c1.1,0,2.201-0.243,3.219-0.729l164.154-78.329c0.315,0.215,0.643,0.415,0.998,0.584l62.995,30.06L255.798,366.4l-68.459-32.72
			c-3.728-1.783-8.189-0.203-9.968,3.521c-1.781,3.725-0.204,8.188,3.521,9.968l71.681,34.26c1.02,0.488,2.121,0.731,3.224,0.731
			c1.1,0,2.201-0.243,3.219-0.729l164.041-78.275l64.106,30.59L255.798,444.146z"/>
	</g>
</g>
<g>
</g>
<g>
</g>
<g>
</g>
<g>
</g>
<g>
</g>
<g>
</g>
<g>
</g>
<g>
</g>
<g>
</g>
<g>
</g>
<g>
</g>
<g>
</g>
<g>
</g>
<g>
</g>
<g>
</g>
</svg>
