<svg xmlns="http://www.w3.org/2000/svg" viewBox="0 0 511.999 511.999"><path d="M510.062 328.728a7.467 7.467 0 00-1.18-1.053l-.008-.006a7.48 7.48 0 00-1.254-.726l-67.207-32.069 67.082-32.009a7.483 7.483 0 004.304-5.145 7.455 7.455 0 00-.303-4.41 7.456 7.456 0 00-2.6-3.37v-.001l-.007-.005a7.56 7.56 0 00-1.272-.739l-67.204-32.067 67.083-32.01a7.478 7.478 0 001.385-12.935l-.008-.006a7.44 7.44 0 00-1.254-.726l-140.573-67.077a7.476 7.476 0 00-6.438 13.494l126.552 60.388-231.364 110.4-230.984-110.4 230.984-110.4 56.037 26.739a7.473 7.473 0 009.966-3.528 7.475 7.475 0 00-3.528-9.966l-59.258-28.277a7.465 7.465 0 00-6.443.002L4.499 171.393a7.476 7.476 0 00-1.381 12.933l.008.006c.391.28.81.523 1.25.724l67.1 32.071L4.5 249.139a7.476 7.476 0 00-1.398 12.921l.008.006a7.52 7.52 0 001.272.739l67.095 32.068L4.5 326.885a7.471 7.471 0 00-3.997 9.549c.331.86.813 1.638 1.411 2.304l.005.005c.369.411.786.784 1.246 1.109l.009.006c.377.266.779.497 1.202.69l248.196 118.627a7.463 7.463 0 006.443.002L507.496 340.61a7.478 7.478 0 002.566-11.882zM255.798 444.146l-230.984-110.4 63.997-30.587 44.026 21.043a7.476 7.476 0 009.969-3.521 7.474 7.474 0 00-3.521-9.968L93.313 288.74a7.506 7.506 0 00-2.349-1.123L24.814 256l63.996-30.587 163.761 78.27a7.463 7.463 0 006.443.002l164.154-78.329c.315.215.643.415.998.584L487.161 256 255.798 366.4l-68.459-32.72a7.472 7.472 0 00-9.968 3.521 7.474 7.474 0 003.521 9.968l71.681 34.26a7.463 7.463 0 006.443.002l164.041-78.275 64.106 30.59-231.365 110.4z"/></svg>