<svg height="512pt" viewBox="0 -56 512 512" width="512pt" xmlns="http://www.w3.org/2000/svg"><path d="M496.969 104.203h-80.156c-8.563 0-16.032 6.465-16.032 15.031v17.032H312.61c-8.562 0-16.03 6.464-16.03 15.03v169.329H16.03c-.277 0-1-.723-1-1v-32.063h265.516v-15.03H15.03v-257.5c0-.278.723 0 1 0h432.844c.277 0 0-.278 0 0v72.14h15.031v-72.14C463.906 6.464 457.441 0 448.875 0H16.031C7.47 0 0 6.465 0 15.031v304.594c0 8.563 7.469 16.031 16.031 16.031H184.36v49.094h-32.062v15.031H312.61V384.75h-33.062v-49.094h17.031v16.031c0 8.563 7.469 16.032 16.031 16.032h136.266c8.566 0 15.031-7.469 15.031-16.031v-56.11h33.063c8.566 0 15.031-7.469 15.031-16.031V119.234c0-8.566-6.465-15.03-15.031-15.03zM264.516 384.75H199.39v-49.094h65.125zm152.296-265.516h80.157c.277 0 0-.277 0 0v17.032h-81.156v-17.032c0-.277.726 0 1 0zm-1 32.063h81.157v97.187h-81.156zm33.063 201.39H312.609c-.273 0-1-.722-1-1v-16.03h137.266v16.03c0 .278.277 1 0 1zm0-32.062H311.609V151.297c0-.277.727 0 1 0h88.172v128.25c0 8.562 7.469 16.031 16.031 16.031h32.063zm48.094-40.078h-80.156c-.274 0-1-.723-1-1v-16.031h81.156v16.03c0 .278.277 1 0 1zm0 0"/><path d="M192.375 240.469h16.031V255.5h-16.031zm32.063 0h16.03V255.5h-16.03zm32.062 0h16.031V255.5H256.5zM47.094 71.14V47.095H72.14V32.062H32.062v39.079zm273.531 120.235h15.031v-16.031h17.031v-15.031h-32.062zm104.203-31.062v31.062h15.031v-16.031h17.032v-15.031zm0 0"/></svg>